Coordinates
version=1
nRows=29
nColumns=24
inDegrees=yes

Units are S.I. units (second, meters, Newtons, ...)
Angles are in degrees.

endheader
time	pelvis_tilt	pelvis_list	pelvis_rotation	pelvis_tx	pelvis_ty	pelvis_tz	hip_flexion_r	hip_adduction_r	hip_rotation_r	knee_angle_r	ankle_angle_r	subtalar_angle_r	mtp_angle_r	hip_flexion_l	hip_adduction_l	hip_rotation_l	knee_angle_l	ankle_angle_l	subtalar_angle_l	mtp_angle_l	lumbar_extension	lumbar_bending	lumbar_rotation
      0.92050000	     -2.98308400	      3.68855676	      2.50691809	     -0.14473596	      1.05625019	      0.30158897	     -8.98009117	     -1.80761514	     -3.15143785	     -9.94823306	     19.67472464	     -3.32111370	      2.92346945	     29.42178805	      2.22573898	     -0.54305986	    -18.85963649	      7.66737364	      5.04422959	      6.59852931	     -9.79285782	     -1.20261401	      1.62587602
      0.92466667	     -2.99928498	      3.60356432	      2.45144750	     -0.13881842	      1.05479229	      0.30114331	     -9.21802024	     -1.74111307	     -3.11312752	    -10.14829462	     19.89634678	     -3.31667550	      2.90079097	     29.45971413	      2.18331570	     -0.48685959	    -18.51245651	      7.75670748	      5.04492652	      6.59160703	     -9.71657169	     -1.11919953	      1.63683888
      0.92883333	     -2.98580328	      3.53721141	      2.38066004	     -0.13288959	      1.05341161	      0.30066735	     -9.43968219	     -1.71328998	     -3.20065052	    -10.45461796	     20.19089883	     -3.07039292	      2.80120970	     29.44977551	      2.16933021	     -0.39568676	    -18.22663859	      7.79295933	      4.84552921	      6.55234558	     -9.66457477	     -1.05487922	      1.69092119
      0.93300000	     -2.99438923	      3.46455767	      2.31200578	     -0.12691212	      1.05200113	      0.30020653	     -9.63595112	     -1.67625061	     -3.22087036	    -10.77089311	     20.42656254	     -2.90965466	      2.70967385	     29.46727014	      2.14921980	     -0.31396706	    -18.04027832	      7.84285137	      4.74075675	      6.51164404	     -9.57564197	     -0.99387510	      1.71858901
      0.93716667	     -2.96386573	      3.40675071	      2.23416740	     -0.12089027	      1.05069088	      0.29977602	     -9.86736631	     -1.65598070	     -3.24021251	    -11.10520739	     20.64992679	     -2.74934949	      2.63237013	     29.42935573	      2.13990147	     -0.24950952	    -17.91733139	      7.88452530	      4.64563802	      6.46941778	     -9.54658840	     -0.96112247	      1.74881715
      0.94133333	     -2.94244766	      3.33949183	      2.15491232	     -0.11485626	      1.04937592	      0.29934841	    -10.08030309	     -1.62352099	     -3.18770684	    -11.45780645	     20.79404166	     -2.73075353	      2.62191153	     29.41453805	      2.12033075	     -0.20842360	    -17.90764817	      7.93412997	      4.60339361	      6.46084997	     -9.49083420	     -0.90312366	      1.75880448
      0.94550000	     -2.91884603	      3.28633294	      2.07311068	     -0.10876806	      1.04809907	      0.29888301	    -10.25653926	     -1.62699366	     -3.28143084	    -11.90353929	     21.03620368	     -2.38991921	      2.58470050	     29.37926081	      2.12608317	     -0.12741949	    -17.94615444	      7.93173557	      4.45745250	      6.42137041	     -9.43086717	     -0.88483121	      1.81723287
      0.94966667	     -2.89593785	      3.21682477	      1.98925514	     -0.10267484	      1.04684640	      0.29846458	    -10.43385663	     -1.60087188	     -3.23662997	    -12.34192379	     21.17588179	     -2.30426816	      2.57806112	     29.36441308	      2.10795216	     -0.07535326	    -18.10661996	      7.93794314	      4.38551989	      6.40513848	     -9.37660477	     -0.84279934	      1.82570066
      0.95383333	     -2.84453810	      3.17640671	      1.89595985	     -0.09654774	      1.04569758	      0.29803206	    -10.61022314	     -1.62109790	     -3.26838329	    -12.85340913	     21.33677519	     -2.06331859	      2.58402275	     29.30161305	      2.12185227	     -0.01272670	    -18.31118968	      7.90752353	      4.29089965	      6.38328941	     -9.34758585	     -0.83143441	      1.85142307
      0.95800000	     -2.81933685	      3.13664362	      1.81855934	     -0.09038683	      1.04453621	      0.29755170	    -10.72987669	     -1.65132941	     -3.36521610	    -13.43194907	     21.43400457	     -1.76560019	      2.61767375	     29.26559447	      2.14951003	      0.09194786	    -18.58204480	      7.85296823	      4.21176736	      6.35418849	     -9.28499398	     -0.83038707	      1.86961278
      0.96216667	     -2.76138291	      3.10078976	      1.73001333	     -0.08422384	      1.04349098	      0.29710731	    -10.87139475	     -1.68535902	     -3.40413389	    -14.03550754	     21.50968106	     -1.52130330	      2.68140360	     29.19744199	      2.17441633	      0.18549949	    -18.92733040	      7.78127701	      4.13338894	      6.33115489	     -9.26305619	     -0.83140205	      1.87689375
      0.96633333	     -2.74570414	      3.04666244	      1.64965245	     -0.07803873	      1.04240925	      0.29662898	    -10.94199519	     -1.70594266	     -3.44376818	    -14.69180244	     21.53972744	     -1.28302867	      2.77921418	     29.19015780	      2.18635664	      0.29053400	    -19.36357077	      7.70075613	      4.07012154	      6.31414038	     -9.18087279	     -0.81418926	      1.87783130
      0.97050000	     -2.68553276	      3.01037391	      1.56569177	     -0.07185493	      1.04147024	      0.29615072	    -11.03272903	     -1.75355124	     -3.50972613	    -15.40613428	     21.54730460	     -0.99125293	      2.92200630	     29.12972583	      2.21577093	      0.40871738	    -19.84445690	      7.60251743	      3.99692334	      6.30164697	     -9.16068440	     -0.81881245	      1.87145117
      0.97466667	     -2.64973818	      2.96829727	      1.48624970	     -0.06565152	      1.04054787	      0.29564975	    -11.06927494	     -1.80195112	     -3.57729645	    -16.17800684	     21.50674152	     -0.70180209	      3.12285319	     29.10474541	      2.24281459	      0.53575030	    -20.39336358	      7.49556401	      3.91369757	      6.29344225	     -9.10083959	     -0.81980893	      1.85623824
      0.97883333	     -2.60214499	      2.93037910	      1.41167885	     -0.05945070	      1.03970439	      0.29512598	    -11.08946736	     -1.86229244	     -3.66261959	    -17.00937544	     21.42523372	     -0.38955073	      3.38292497	     29.07229390	      2.27607907	      0.66971581	    -20.99285852	      7.39426121	      3.83218998	      6.28894226	     -9.06069817	     -0.81972848	      1.83335947
      0.98300000	     -2.55492451	      2.86475085	      1.33538627	     -0.05327438	      1.03893321	      0.29459829	    -11.08443355	     -1.89354134	     -3.69373462	    -17.87549133	     21.26101373	     -0.10245247	      3.59277353	     29.05571541	      2.27943502	      0.81613642	    -21.65926729	      7.30727480	      3.74405602	      6.28737475	     -9.03522722	     -0.78569936	      1.81610877
      0.98716667	     -2.50640585	      2.82462105	      1.26660466	     -0.04706763	      1.03822416	      0.29403295	    -11.04244071	     -1.96801918	     -3.80076487	    -18.82767321	     21.06737828	      0.25017651	      3.84560196	     29.03578241	      2.31067269	      0.95079546	    -22.35530571	      7.23269304	      3.65028931	      6.28598079	     -8.99533509	     -0.78258645	      1.78044350
      0.99133333	     -2.45109352	      2.80558640	      1.19783526	     -0.04084654	      1.03761562	      0.29345583	    -10.97314638	     -2.07687885	     -3.93294007	    -19.83801051	     20.72065947	      0.49712263	      8.40488108	     28.99515898	      2.36618974	      1.10514742	    -23.05160200	      7.13346603	      3.48817255	      6.23153518	     -8.95860590	     -0.80981746	      1.71750579
      0.99550000	     -2.38789513	      2.74424442	      1.12970041	     -0.03467053	      1.03707645	      0.29287096	    -10.88080844	     -2.14045937	     -4.02051258	    -20.90078937	     20.38650103	      0.82939104	      8.45438390	     28.97142735	      2.36992969	      1.23173951	    -23.81940193	      7.13501306	      3.42826722	      6.23139990	     -8.94681036	     -0.78630774	      1.69508101
      0.99966667	     -2.35288200	      2.70496570	      1.06522212	     -0.02846320	      1.03657175	      0.29225593	    -10.71305360	     -2.24555329	     -4.16024518	    -22.05668969	     20.02677994	      1.22516919	      8.56525323	     28.96352908	      2.39887893	      1.36117169	    -24.57827486	      7.12913219	      3.32999743	      6.22671877	     -8.89245854	     -0.78943646	      1.64668350
      1.00383333	     -2.29717018	      2.68575069	      1.00418998	     -0.02226921	      1.03617692	      0.29160953	    -10.52865961	     -2.38578948	     -4.33137366	    -23.27855696	     19.57128318	      1.56436993	     11.59251493	     28.91709747	      2.45306062	      1.50176666	    -25.31743565	      7.11242375	      3.15363942	      6.01384739	     -8.86174109	     -0.80638086	      1.55490284
      1.00800000	     -2.23580373	      2.64935848	      0.94730455	     -0.01609495	      1.03585621	      0.29096605	    -10.31514989	     -2.51184598	     -4.49505869	    -24.55977217	     19.07874373	      1.94497513	     11.66946284	     28.86874612	      2.48016903	      1.60458638	    -26.07635052	      7.18188911	      3.10156166	      6.01063001	     -8.84400098	     -0.80538954	      1.51965727
      1.01216667	     -2.18187874	      2.62092269	      0.89186314	     -0.00992882	      1.03559911	      0.29030857	    -10.05459064	     -2.65739235	     -4.66474714	    -25.90779393	     18.52825435	      2.33555447	     11.84049861	     28.81058371	      2.51657017	      1.71138165	    -26.80813435	      7.25776034	      3.00311932	      5.99764755	     -8.82121970	     -0.81770719	      1.45496643
      1.01633333	     -2.08396731	      2.60890042	      0.84798839	     -0.00380096	      1.03550695	      0.28960907	     -9.81065027	     -2.83110975	     -4.86032994	    -27.29338943	     17.83504955	      2.68319511	     14.83512209	     28.67246921	      2.58699126	      1.87349034	    -27.48120442	      7.35744969	      2.78192094	      5.69750145	     -8.86728697	     -0.84145670	      1.31837734
      1.02050000	     -2.05151495	      2.57762986	      0.78670422	      0.00235061	      1.03536597	      0.28898932	     -9.44940915	     -2.98713771	     -5.00649949	    -28.75696489	     17.11680274	      2.99331167	     14.92588678	     28.60714710	      2.59725017	      1.89446920	    -28.16548327	      7.50139933	      2.81355275	      5.69274648	     -8.80746235	     -0.85640819	      1.30922148
      1.02466667	     -1.99629831	      2.56205186	      0.73839928	      0.00846045	      1.03533451	      0.28833520	     -9.07596860	     -3.17157883	     -5.18845446	    -30.27779801	     16.35250055	      3.33066980	     15.09704666	     28.48587337	      2.63743700	      1.95708268	    -28.78810400	      7.66792628	      2.75226911	      5.67807625	     -8.79065233	     -0.88284252	      1.24643522
      1.02883333	     -1.91736393	      2.56243241	      0.70155948	      0.01453787	      1.03543001	      0.28766487	     -8.70020399	     -3.37894684	     -5.37757519	    -31.82532634	     15.44538080	      3.56609234	     18.39272985	     28.30280761	      2.70634139	      2.06231718	    -29.34114320	      7.86569067	      2.61450755	      5.28768202	     -8.81381471	     -0.92853908	      1.09791589
      1.03300000	     -1.85012387	      2.55760901	      0.63884979	      0.02059121	      1.03558188	      0.28708503	     -8.26921833	     -3.58094382	     -5.50685215	    -33.42860665	     14.51590972	      3.79825735	     18.42703368	     28.11232373	      2.73745843	      2.07294744	    -29.85454054	      8.08172376	      2.61281984	      5.28853707	     -8.81829973	     -0.97797991	      1.07441019
      1.03716667	     -1.80762901	      2.56236645	      0.59908043	      0.02660786	      1.03572414	      0.28646788	     -7.77169338	     -3.80636684	     -5.69496659	    -35.09944454	     13.60741485	      4.03820213	     18.55034737	     27.93576484	      2.78619045	      2.08318028	    -30.33999105	      8.31517029	      2.57937507	      5.27709300	     -8.79327772	     -1.03381140	      1.01083335
